# xmcd CD database file
#
# Track frame offsets:
#	150
#	13331
#	28078
#	40183
#	54407
#	66400
#	81406
#	96273
#	109275
#	121229
#	134384
#	147001
#	161137
#	173431
#	189684
#	203531
#
# Disc length: 2904 seconds
#
# Revision: 1
# Processed by: cddbd v1.5.1PL0 Copyright (c) Steve Scherf et al.
# Submitted via: CDex 1.51
#
DISCID=e20b5610
DTITLE=Duke Ellington - The Early Years 1927-1946 CD1
DYEAR=1900
DGENRE=Jazz
TTITLE0=Take the 'A' Train
TTITLE1=Five O'Clock Whistle
TTITLE2=Sophisticated Lady
TTITLE3=Perdido
TTITLE4=Ko-Ko
TTITLE5=Blue Goose
TTITLE6=Warm Valley
TTITLE7=Chocolate Shake
TTITLE8=The 'C' Jam Blues
TTITLE9=Rockin' in Rhythm
TTITLE10=Syncopated Shuffle
TTITLE11=High Life
TTITLE12=Keep a Song in Your Soul
TTITLE13=East Seint Louis Toodle-oo
TTITLE14=Three Little Words
TTITLE15=Creole Love Call
EXTD=
EXTT0=
EXTT1=
EXTT2=
EXTT3=
EXTT4=
EXTT5=
EXTT6=
EXTT7=
EXTT8=
EXTT9=
EXTT10=
EXTT11=
EXTT12=
EXTT13=
EXTT14=
EXTT15=
PLAYORDER=
